<?xml version="1.0" encoding="UTF-8"?><svg id="Logos" xmlns="http://www.w3.org/2000/svg" viewBox="0 0 359.5 405.87"><defs><style>.cls-1{fill:#559cad;}.cls-2{fill:#062e4a;}.cls-3{fill:#85c0bd;}.cls-4{fill:#267f95;}</style></defs><path class="cls-2" d="M60.5,299.4l22.97-59.68h16.01l22.97,59.68h-14.01l-4.26-11.75h-26.01l-4.26,11.75h-13.4ZM81.9,277.21h18.53l-5.31-14.7c-.23-.64-.51-1.41-.83-2.31-.32-.9-.65-1.9-1-3-.35-1.1-.68-2.19-1-3.26-.32-1.07-.62-2.04-.91-2.92h-.52c-.29,1.1-.67,2.39-1.13,3.87-.46,1.48-.93,2.9-1.39,4.26-.47,1.36-.84,2.48-1.13,3.35l-5.31,14.7Z"/><path class="cls-2" d="M127.49,299.4v-59.68h12.96v48.63h30.1v11.05h-43.06Z"/><path class="cls-2" d="M202.58,300.44c-9.4,0-16.63-2.51-21.71-7.53-5.08-5.02-7.61-12.8-7.61-23.36,0-7.02,1.22-12.8,3.65-17.36,2.44-4.55,5.97-7.95,10.61-10.18,4.64-2.23,10.21-3.35,16.7-3.35,3.89,0,7.54.43,10.96,1.3,3.42.87,6.45,2.21,9.09,4,2.64,1.8,4.7,4.05,6.18,6.74,1.48,2.7,2.22,5.9,2.22,9.61h-13.14c0-1.8-.39-3.39-1.17-4.79-.78-1.39-1.87-2.55-3.26-3.48-1.39-.93-2.99-1.62-4.78-2.09-1.8-.46-3.68-.7-5.65-.7-3.02,0-5.66.39-7.92,1.17s-4.13,1.97-5.61,3.57c-1.48,1.6-2.6,3.58-3.35,5.96-.75,2.38-1.13,5.13-1.13,8.27v2.61c0,4.35.64,7.92,1.91,10.7,1.28,2.78,3.19,4.86,5.74,6.22,2.55,1.36,5.71,2.04,9.48,2.04,3.13,0,5.9-.48,8.31-1.44,2.41-.96,4.29-2.33,5.66-4.13,1.36-1.8,2.04-4,2.04-6.61v-.61h-17.83v-9.92h30.71v32.28h-8.53l-1.13-6.44c-1.74,1.68-3.61,3.07-5.61,4.18-2,1.1-4.22,1.93-6.66,2.48s-5.16.83-8.18.83Z"/><path class="cls-2" d="M237.37,299.4l22.97-59.68h16.01l22.97,59.68h-14.01l-4.26-11.75h-26.01l-4.26,11.75h-13.4ZM258.77,277.21h18.53l-5.31-14.7c-.23-.64-.51-1.41-.83-2.31-.32-.9-.65-1.9-1-3-.35-1.1-.68-2.19-1-3.26-.32-1.07-.62-2.04-.91-2.92h-.52c-.29,1.1-.67,2.39-1.13,3.87-.46,1.48-.93,2.9-1.39,4.26-.47,1.36-.84,2.48-1.13,3.35l-5.31,14.7Z"/><path class="cls-1" d="M60.18,326.08l5.71-14.68h3.51l5.74,14.68h-3.02l-1.18-3.12h-6.72l-1.18,3.12h-2.87ZM65.1,320.6h4.94l-1.48-3.98c-.06-.14-.12-.32-.2-.55-.08-.22-.16-.46-.25-.73-.09-.26-.17-.53-.26-.8-.09-.27-.16-.51-.24-.73h-.11c-.09.29-.19.61-.31.98-.12.37-.24.72-.35,1.05-.11.33-.21.58-.28.77l-1.48,3.98Z"/><path class="cls-1" d="M79.73,326.34c-1.08,0-1.97-.3-2.64-.89-.68-.59-1.02-1.6-1.02-3.03v-7.6h2.61v7.13c0,.4.05.73.14,1,.09.26.23.48.41.64.18.16.4.28.65.35.26.07.54.11.86.11.47,0,.9-.11,1.27-.34.38-.23.68-.54.9-.95.22-.41.33-.87.33-1.38v-6.55h2.61v11.26h-2.16l-.21-1.5h-.15c-.26.34-.56.65-.91.91-.35.26-.75.47-1.2.62-.45.15-.95.22-1.49.22Z"/><path class="cls-1" d="M92.61,326.34c-.81,0-1.53-.09-2.14-.27-.61-.18-1.13-.42-1.54-.74-.41-.31-.72-.68-.93-1.1-.21-.42-.31-.88-.31-1.38,0-.07,0-.14.01-.19,0-.06.01-.1.01-.13h2.57v.17c.01.39.14.7.36.93.23.24.53.4.9.5.37.1.76.15,1.18.15.37,0,.72-.04,1.06-.12.33-.08.61-.21.83-.38.22-.18.33-.41.33-.7,0-.37-.14-.66-.43-.86-.29-.2-.66-.36-1.12-.49-.46-.13-.96-.26-1.49-.41-.47-.13-.94-.27-1.41-.43-.47-.16-.9-.36-1.27-.6-.38-.24-.68-.56-.92-.94-.24-.39-.35-.86-.35-1.43s.12-1.04.36-1.46c.24-.41.58-.76,1.01-1.04s.93-.49,1.52-.63c.58-.14,1.22-.21,1.9-.21s1.28.07,1.83.21c.55.14,1.03.35,1.43.61.41.26.72.58.94.96s.33.8.33,1.25c0,.1,0,.2-.01.3,0,.1-.01.16-.01.17h-2.55v-.15c0-.27-.08-.5-.25-.7-.16-.19-.4-.35-.71-.46-.31-.11-.69-.17-1.15-.17-.34,0-.64.03-.9.09-.26.06-.47.14-.63.24-.16.1-.29.21-.37.34-.09.13-.13.27-.13.43,0,.27.11.48.32.64.21.16.5.29.87.41.36.11.76.24,1.19.36.51.14,1.04.29,1.58.44.54.15,1.04.34,1.51.57.46.23.84.55,1.12.96.29.41.43.96.43,1.65s-.12,1.22-.37,1.68c-.25.46-.6.83-1.05,1.11-.45.28-.98.48-1.58.61-.61.13-1.27.19-1.98.19Z"/><path class="cls-1" d="M102.63,326.34c-.7,0-1.25-.14-1.65-.42-.4-.28-.68-.63-.85-1.07-.16-.44-.25-.88-.25-1.34v-6.55h-1.35v-2.14h1.41l.47-3.15h2.08v3.15h1.95v2.14h-1.95v6.29c0,.3.08.53.24.7.16.16.39.25.71.25h1.01v1.8c-.14.06-.32.11-.52.16s-.42.09-.65.13c-.23.04-.44.05-.64.05Z"/><path class="cls-1" d="M106.05,326.08v-11.26h2.18l.21,1.78h.15c.14-.36.32-.69.52-1,.21-.31.47-.56.8-.75.33-.19.73-.29,1.2-.29.23,0,.44.02.63.06s.34.09.44.13v2.46h-.79c-.44,0-.83.06-1.18.18-.34.12-.63.31-.87.57-.24.26-.41.58-.52.96-.11.38-.17.83-.17,1.35v5.8h-2.61Z"/><path class="cls-1" d="M116.51,326.34c-.31,0-.67-.04-1.08-.12-.41-.08-.8-.22-1.18-.44-.38-.21-.69-.53-.93-.95-.24-.42-.36-.97-.36-1.66,0-.77.17-1.41.51-1.92.34-.51.82-.91,1.44-1.2.62-.29,1.36-.5,2.23-.62.86-.12,1.81-.18,2.84-.18v-.92c0-.33-.05-.62-.15-.88-.1-.26-.28-.46-.55-.61-.26-.15-.66-.22-1.19-.22s-.94.06-1.24.19c-.3.13-.51.29-.62.47-.11.19-.17.38-.17.58v.3h-2.53c-.01-.07-.02-.14-.02-.21v-.26c0-.64.19-1.2.58-1.67s.92-.83,1.6-1.08c.68-.25,1.48-.38,2.38-.38,1.03,0,1.87.14,2.54.43.66.29,1.16.69,1.49,1.22.33.53.49,1.17.49,1.93v5.31c0,.27.08.46.24.58s.33.17.51.17h.68v1.8c-.14.06-.35.12-.62.2-.27.08-.61.12-1.01.12-.37,0-.7-.06-.99-.18-.29-.12-.54-.3-.74-.52-.2-.23-.34-.5-.43-.81h-.13c-.24.3-.53.57-.87.8-.34.24-.73.42-1.18.54-.45.13-.97.19-1.55.19ZM117.3,324.2c.43,0,.81-.06,1.14-.19.34-.13.61-.31.83-.54.22-.23.39-.51.51-.83.12-.33.18-.69.18-1.07v-.51c-.78,0-1.51.05-2.17.15-.66.1-1.19.29-1.58.56-.39.27-.59.66-.59,1.16,0,.26.06.48.18.67.12.19.31.34.56.45.25.11.56.16.93.16Z"/><path class="cls-1" d="M125.33,326.08v-15.47h2.61v15.47h-2.61Z"/><path class="cls-1" d="M130.31,313.09v-2.48h2.61v2.48h-2.61ZM130.31,326.08v-11.26h2.61v11.26h-2.61Z"/><path class="cls-1" d="M138.27,326.34c-.31,0-.67-.04-1.08-.12-.41-.08-.8-.22-1.18-.44-.38-.21-.69-.53-.93-.95-.24-.42-.36-.97-.36-1.66,0-.77.17-1.41.51-1.92.34-.51.82-.91,1.44-1.2.62-.29,1.36-.5,2.23-.62.86-.12,1.81-.18,2.84-.18v-.92c0-.33-.05-.62-.15-.88-.1-.26-.28-.46-.55-.61-.26-.15-.66-.22-1.19-.22s-.94.06-1.24.19c-.3.13-.51.29-.62.47-.11.19-.17.38-.17.58v.3h-2.53c-.01-.07-.02-.14-.02-.21v-.26c0-.64.19-1.2.58-1.67s.92-.83,1.6-1.08c.68-.25,1.48-.38,2.38-.38,1.03,0,1.87.14,2.54.43.66.29,1.16.69,1.49,1.22.33.53.49,1.17.49,1.93v5.31c0,.27.08.46.24.58s.33.17.51.17h.68v1.8c-.14.06-.35.12-.62.2-.27.08-.61.12-1.01.12-.37,0-.7-.06-.99-.18-.29-.12-.54-.3-.74-.52-.2-.23-.34-.5-.43-.81h-.13c-.24.3-.53.57-.87.8-.34.24-.73.42-1.18.54-.45.13-.97.19-1.55.19ZM139.06,324.2c.43,0,.81-.06,1.14-.19.34-.13.61-.31.83-.54.22-.23.39-.51.51-.83.12-.33.18-.69.18-1.07v-.51c-.78,0-1.51.05-2.17.15-.66.1-1.19.29-1.58.56-.39.27-.59.66-.59,1.16,0,.26.06.48.18.67.12.19.31.34.56.45.25.11.56.16.93.16Z"/><path class="cls-1" d="M147.09,326.08v-11.26h2.18l.21,1.5h.15c.26-.34.56-.65.91-.91.35-.26.75-.47,1.2-.62.45-.15.95-.22,1.49-.22.71,0,1.34.13,1.89.39.55.26.98.67,1.29,1.24.31.57.47,1.33.47,2.29v7.6h-2.63v-7.13c0-.4-.05-.73-.14-1-.09-.26-.23-.48-.41-.64-.18-.16-.4-.28-.65-.35s-.54-.11-.86-.11c-.47,0-.9.11-1.27.34-.38.23-.68.54-.9.94-.22.4-.33.86-.33,1.39v6.55h-2.61Z"/><path class="cls-1" d="M163.89,326.08v-14.68h2.78v12.26h7.36v2.42h-10.14Z"/><path class="cls-1" d="M180.65,326.34c-1.23,0-2.25-.21-3.08-.63-.83-.42-1.45-1.07-1.86-1.94s-.62-1.98-.62-3.32.21-2.46.62-3.33,1.03-1.5,1.86-1.93,1.85-.63,3.08-.63,2.27.21,3.09.63c.82.42,1.44,1.06,1.85,1.93s.62,1.97.62,3.33-.21,2.45-.62,3.32-1.03,1.52-1.85,1.94c-.82.42-1.85.63-3.09.63ZM180.65,324.2c.68,0,1.24-.13,1.66-.4.42-.26.73-.66.92-1.2s.29-1.2.29-2v-.3c0-.8-.1-1.47-.29-2s-.5-.93-.92-1.2c-.42-.26-.97-.4-1.66-.4s-1.24.13-1.66.4c-.42.26-.73.66-.92,1.2s-.29,1.2-.29,2v.3c0,.8.1,1.47.29,2s.5.93.92,1.2c.42.26.97.4,1.66.4Z"/><path class="cls-1" d="M192.85,326.34c-1.17,0-2.14-.21-2.92-.63-.78-.42-1.36-1.07-1.74-1.94s-.58-1.98-.58-3.32.2-2.46.59-3.33c.39-.86.98-1.5,1.75-1.93.78-.42,1.74-.63,2.9-.63.76,0,1.43.09,2.01.28.58.19,1.09.47,1.51.85.42.38.74.84.95,1.4.21.56.32,1.21.32,1.95h-2.65c0-.53-.08-.96-.24-1.31-.16-.34-.4-.6-.72-.78-.32-.18-.73-.27-1.23-.27-.58,0-1.06.14-1.43.41-.37.27-.65.67-.82,1.21-.18.54-.27,1.21-.27,2.02v.28c0,.8.09,1.47.27,2.01.18.54.46.95.85,1.21s.89.4,1.52.4c.48,0,.89-.09,1.21-.27.32-.18.57-.45.74-.8s.26-.79.26-1.28h2.53c0,.7-.11,1.33-.32,1.88-.21.56-.53,1.03-.94,1.41-.41.39-.92.68-1.51.88-.59.2-1.27.3-2.02.3Z"/><path class="cls-1" d="M202.53,326.34c-.31,0-.67-.04-1.08-.12-.41-.08-.8-.22-1.18-.44-.38-.21-.69-.53-.93-.95-.24-.42-.36-.97-.36-1.66,0-.77.17-1.41.51-1.92.34-.51.82-.91,1.44-1.2.62-.29,1.36-.5,2.23-.62.86-.12,1.81-.18,2.84-.18v-.92c0-.33-.05-.62-.15-.88-.1-.26-.28-.46-.55-.61-.26-.15-.66-.22-1.19-.22s-.94.06-1.24.19c-.3.13-.51.29-.62.47-.11.19-.17.38-.17.58v.3h-2.53c-.01-.07-.02-.14-.02-.21v-.26c0-.64.19-1.2.58-1.67s.92-.83,1.6-1.08c.68-.25,1.48-.38,2.38-.38,1.03,0,1.87.14,2.54.43.66.29,1.16.69,1.49,1.22.33.53.49,1.17.49,1.93v5.31c0,.27.08.46.24.58s.33.17.51.17h.68v1.8c-.14.06-.35.12-.62.2-.27.08-.61.12-1.01.12-.37,0-.7-.06-.99-.18-.29-.12-.54-.3-.74-.52-.2-.23-.34-.5-.43-.81h-.13c-.24.3-.53.57-.87.8-.34.24-.73.42-1.18.54-.45.13-.97.19-1.55.19ZM203.32,324.2c.43,0,.81-.06,1.14-.19.34-.13.61-.31.83-.54.22-.23.39-.51.51-.83.12-.33.18-.69.18-1.07v-.51c-.78,0-1.51.05-2.17.15-.66.1-1.19.29-1.58.56-.39.27-.59.66-.59,1.16,0,.26.06.48.18.67.12.19.31.34.56.45.25.11.56.16.93.16Z"/><path class="cls-1" d="M211.35,326.08v-15.47h2.61v15.47h-2.61Z"/><path class="cls-1" d="M67.54,346.19c-2.27,0-4.03-.61-5.29-1.83-1.26-1.22-1.88-3.14-1.88-5.77,0-1.73.3-3.15.89-4.27.59-1.12,1.45-1.95,2.57-2.5,1.12-.55,2.46-.82,4.03-.82.94,0,1.83.11,2.65.32s1.56.54,2.19.97c.63.44,1.13.98,1.49,1.64.36.66.53,1.43.53,2.33h-2.87c0-.47-.1-.89-.31-1.25-.21-.36-.49-.67-.86-.92-.36-.25-.78-.43-1.25-.56-.47-.12-.97-.18-1.5-.18-.78,0-1.47.1-2.07.31s-1.08.52-1.48.94c-.39.42-.68.95-.88,1.57-.19.63-.29,1.36-.29,2.2v.45c0,1.16.16,2.1.49,2.85.33.74.82,1.29,1.49,1.64s1.49.52,2.47.52c.84,0,1.58-.13,2.21-.39.63-.26,1.13-.63,1.5-1.12s.55-1.09.55-1.81v-.15h-4.69v-2.31h7.47v7.88h-1.99l-.24-1.63c-.43.43-.88.78-1.37,1.06-.49.28-1.02.48-1.6.62s-1.25.2-1.99.2Z"/><path class="cls-1" d="M82.4,346.19c-1.23,0-2.25-.21-3.08-.63s-1.45-1.07-1.86-1.94-.62-1.98-.62-3.32.21-2.46.62-3.33c.41-.86,1.03-1.5,1.86-1.93s1.85-.63,3.08-.63,2.27.21,3.09.63c.82.42,1.44,1.06,1.85,1.93.41.86.62,1.97.62,3.33s-.21,2.45-.62,3.32-1.03,1.52-1.85,1.94c-.82.42-1.85.63-3.09.63ZM82.4,344.05c.68,0,1.24-.13,1.66-.4.42-.26.73-.66.92-1.2s.29-1.2.29-2v-.3c0-.8-.1-1.47-.29-2-.19-.54-.5-.93-.92-1.2-.42-.26-.97-.4-1.66-.4s-1.24.13-1.66.4c-.42.26-.73.66-.92,1.2-.19.53-.29,1.2-.29,2v.3c0,.8.1,1.47.29,2s.5.93.92,1.2c.42.26.97.4,1.66.4Z"/><path class="cls-1" d="M92.52,345.93l-4.17-11.26h2.74l1.82,5.07c.09.24.19.57.31.97.12.41.25.83.37,1.26.13.44.24.83.32,1.19h.11c.09-.33.19-.71.3-1.13.11-.43.23-.85.35-1.26.12-.41.23-.76.33-1.03l1.8-5.07h2.65l-4.19,11.26h-2.74Z"/><path class="cls-1" d="M105.24,346.19c-1.2,0-2.2-.21-3-.63-.8-.42-1.4-1.07-1.8-1.94-.4-.87-.6-1.98-.6-3.32s.2-2.46.6-3.33c.4-.86,1-1.5,1.8-1.93.8-.42,1.8-.63,3-.63,1.08,0,1.99.2,2.73.61.73.41,1.29,1.03,1.66,1.87.37.84.56,1.93.56,3.27v.77h-7.66c.03.7.14,1.29.32,1.77.19.48.47.83.87,1.07.39.24.91.35,1.55.35.33,0,.63-.04.92-.13.29-.09.53-.22.75-.4.21-.18.38-.4.5-.67.12-.27.18-.58.18-.94h2.57c0,.71-.12,1.33-.37,1.86-.25.53-.6.96-1.05,1.3-.45.34-.97.6-1.57.77-.6.17-1.25.26-1.95.26ZM102.56,339.1h4.9c0-.47-.05-.87-.16-1.2-.11-.33-.26-.6-.45-.81s-.42-.37-.7-.46-.58-.14-.92-.14c-.56,0-1.02.09-1.4.28-.38.19-.67.47-.87.86-.2.38-.34.88-.41,1.48Z"/><path class="cls-1" d="M112.13,345.93v-11.26h2.18l.21,1.78h.15c.14-.36.32-.69.52-1,.21-.31.47-.56.8-.75.33-.19.73-.29,1.2-.29.23,0,.44.02.63.06.19.04.34.09.44.13v2.46h-.79c-.44,0-.83.06-1.18.18-.34.12-.63.31-.87.57s-.41.58-.52.96c-.11.39-.17.83-.17,1.35v5.8h-2.61Z"/><path class="cls-1" d="M119.64,345.93v-11.26h2.18l.21,1.5h.15c.26-.34.56-.65.91-.91.35-.26.75-.47,1.2-.62.45-.15.95-.22,1.49-.22.71,0,1.34.13,1.89.38.55.26.98.67,1.29,1.24.31.57.47,1.33.47,2.29v7.6h-2.63v-7.13c0-.4-.05-.73-.14-1-.09-.26-.23-.48-.41-.64-.18-.16-.4-.28-.65-.35s-.54-.11-.86-.11c-.47,0-.9.12-1.27.34-.38.23-.68.54-.9.94-.22.4-.33.86-.33,1.39v6.55h-2.61Z"/><path class="cls-1" d="M131.77,345.93v-11.26h2.18l.21,1.5h.15c.24-.34.52-.65.83-.91.31-.26.67-.47,1.08-.62.41-.15.85-.22,1.34-.22.66,0,1.24.14,1.75.41.51.27.91.72,1.2,1.35h.15c.24-.34.53-.65.86-.91.33-.26.71-.47,1.13-.62.43-.15.89-.22,1.39-.22.67,0,1.26.12,1.78.36.51.24.92.64,1.22,1.2.3.56.45,1.3.45,2.23v7.73h-2.61v-7.19c0-.38-.04-.71-.13-.97-.09-.26-.2-.47-.35-.62-.15-.15-.34-.26-.56-.33-.22-.07-.46-.11-.72-.11-.41,0-.78.12-1.11.34-.33.23-.59.54-.78.94s-.29.86-.29,1.39v6.55h-2.61v-7.19c0-.38-.04-.71-.13-.97-.09-.26-.2-.47-.35-.62-.15-.15-.34-.26-.56-.33-.22-.07-.46-.11-.72-.11-.41,0-.79.12-1.12.34-.34.23-.6.54-.79.94-.19.4-.29.86-.29,1.39v6.55h-2.61Z"/><path class="cls-1" d="M154.71,346.19c-1.2,0-2.2-.21-3-.63-.8-.42-1.4-1.07-1.8-1.94-.4-.87-.6-1.98-.6-3.32s.2-2.46.6-3.33c.4-.86,1-1.5,1.8-1.93.8-.42,1.8-.63,3-.63,1.08,0,1.99.2,2.73.61.73.41,1.29,1.03,1.66,1.87.37.84.56,1.93.56,3.27v.77h-7.66c.03.7.14,1.29.32,1.77.19.48.47.83.87,1.07.39.24.91.35,1.55.35.33,0,.63-.04.92-.13.29-.09.53-.22.75-.4.21-.18.38-.4.5-.67.12-.27.18-.58.18-.94h2.57c0,.71-.12,1.33-.37,1.86-.25.53-.6.96-1.05,1.3-.45.34-.97.6-1.57.77-.6.17-1.25.26-1.95.26ZM152.03,339.1h4.9c0-.47-.05-.87-.16-1.2-.11-.33-.26-.6-.45-.81s-.42-.37-.7-.46-.58-.14-.92-.14c-.56,0-1.02.09-1.4.28-.38.19-.67.47-.87.86-.2.38-.34.88-.41,1.48Z"/><path class="cls-1" d="M161.6,345.93v-11.26h2.18l.21,1.5h.15c.26-.34.56-.65.91-.91.35-.26.75-.47,1.2-.62.45-.15.95-.22,1.49-.22.71,0,1.34.13,1.89.38.55.26.98.67,1.29,1.24.31.57.47,1.33.47,2.29v7.6h-2.63v-7.13c0-.4-.05-.73-.14-1-.09-.26-.23-.48-.41-.64-.18-.16-.4-.28-.65-.35s-.54-.11-.86-.11c-.47,0-.9.12-1.27.34-.38.23-.68.54-.9.94-.22.4-.33.86-.33,1.39v6.55h-2.61Z"/><path class="cls-1" d="M176.79,346.19c-.7,0-1.25-.14-1.65-.42-.4-.28-.68-.63-.85-1.07-.16-.43-.25-.88-.25-1.34v-6.55h-1.35v-2.14h1.41l.47-3.15h2.08v3.15h1.95v2.14h-1.95v6.29c0,.3.08.53.24.7.16.16.39.25.71.25h1.01v1.8c-.14.06-.32.11-.52.16s-.42.09-.65.13c-.23.04-.44.05-.64.05Z"/><path class="cls-1" d="M184.18,345.93l5.71-14.68h3.51l5.74,14.68h-3.02l-1.18-3.12h-6.72l-1.18,3.12h-2.87ZM189.1,340.45h4.94l-1.48-3.98c-.06-.14-.12-.32-.2-.54-.08-.22-.16-.46-.25-.73-.09-.26-.17-.53-.26-.8-.09-.27-.16-.51-.24-.73h-.11c-.09.29-.19.61-.31.98-.12.37-.24.72-.35,1.05-.11.33-.21.58-.28.77l-1.48,3.98Z"/><path class="cls-1" d="M204.74,346.19c-.81,0-1.53-.09-2.14-.27-.61-.18-1.13-.42-1.54-.74-.41-.31-.72-.68-.93-1.1-.21-.42-.31-.88-.31-1.38,0-.07,0-.13.01-.19,0-.06.01-.1.01-.13h2.57v.17c.01.38.14.7.36.93.23.24.53.4.9.5.37.1.76.15,1.18.15.37,0,.72-.04,1.06-.12.33-.08.61-.21.83-.38.22-.18.33-.41.33-.7,0-.37-.14-.66-.43-.86-.29-.2-.66-.36-1.12-.49-.46-.13-.96-.26-1.49-.41-.47-.13-.94-.27-1.41-.43-.47-.16-.9-.36-1.27-.6-.38-.24-.68-.56-.92-.94-.24-.38-.35-.86-.35-1.43s.12-1.04.36-1.46c.24-.41.58-.76,1.01-1.04s.93-.49,1.52-.63c.58-.14,1.22-.21,1.9-.21s1.28.07,1.83.21c.55.14,1.03.35,1.43.61.41.26.72.59.94.96.22.38.33.8.33,1.25,0,.1,0,.2-.01.3,0,.1-.01.16-.01.17h-2.55v-.15c0-.27-.08-.5-.25-.7s-.4-.35-.71-.46c-.31-.11-.69-.17-1.15-.17-.34,0-.64.03-.9.09-.26.06-.47.14-.63.24-.16.1-.29.21-.37.34-.09.13-.13.27-.13.43,0,.27.11.49.32.64.21.16.5.29.87.41s.76.24,1.19.36c.51.14,1.04.29,1.58.44.54.15,1.04.34,1.51.57.46.23.84.55,1.12.96.29.41.43.96.43,1.65s-.12,1.22-.37,1.68c-.25.46-.6.83-1.05,1.11-.45.28-.98.48-1.58.61-.61.13-1.27.19-1.98.19Z"/><path class="cls-1" d="M216.05,346.19c-.81,0-1.53-.09-2.14-.27-.61-.18-1.13-.42-1.54-.74-.41-.31-.72-.68-.93-1.1-.21-.42-.31-.88-.31-1.38,0-.07,0-.13.01-.19,0-.06.01-.1.01-.13h2.57v.17c.01.38.14.7.36.93.23.24.53.4.9.5.37.1.76.15,1.18.15.37,0,.72-.04,1.06-.12.33-.08.61-.21.83-.38.22-.18.33-.41.33-.7,0-.37-.14-.66-.43-.86-.29-.2-.66-.36-1.12-.49-.46-.13-.96-.26-1.49-.41-.47-.13-.94-.27-1.41-.43-.47-.16-.9-.36-1.27-.6-.38-.24-.68-.56-.92-.94-.24-.38-.35-.86-.35-1.43s.12-1.04.36-1.46c.24-.41.58-.76,1.01-1.04s.93-.49,1.52-.63c.58-.14,1.22-.21,1.9-.21s1.28.07,1.83.21c.55.14,1.03.35,1.43.61.41.26.72.59.94.96.22.38.33.8.33,1.25,0,.1,0,.2-.01.3,0,.1-.01.16-.01.17h-2.55v-.15c0-.27-.08-.5-.25-.7s-.4-.35-.71-.46c-.31-.11-.69-.17-1.15-.17-.34,0-.64.03-.9.09-.26.06-.47.14-.63.24-.16.1-.29.21-.37.34-.09.13-.13.27-.13.43,0,.27.11.49.32.64.21.16.5.29.87.41s.76.24,1.19.36c.51.14,1.04.29,1.58.44.54.15,1.04.34,1.51.57.46.23.84.55,1.12.96.29.41.43.96.43,1.65s-.12,1.22-.37,1.68c-.25.46-.6.83-1.05,1.11-.45.28-.98.48-1.58.61-.61.13-1.27.19-1.98.19Z"/><path class="cls-1" d="M227.94,346.19c-1.23,0-2.25-.21-3.08-.63s-1.45-1.07-1.86-1.94-.62-1.98-.62-3.32.21-2.46.62-3.33c.41-.86,1.03-1.5,1.86-1.93s1.85-.63,3.08-.63,2.27.21,3.09.63c.82.42,1.44,1.06,1.85,1.93.41.86.62,1.97.62,3.33s-.21,2.45-.62,3.32-1.03,1.52-1.85,1.94c-.82.42-1.85.63-3.09.63ZM227.94,344.05c.68,0,1.24-.13,1.66-.4.42-.26.73-.66.92-1.2s.29-1.2.29-2v-.3c0-.8-.1-1.47-.29-2-.19-.54-.5-.93-.92-1.2-.42-.26-.97-.4-1.66-.4s-1.24.13-1.66.4c-.42.26-.73.66-.92,1.2-.19.53-.29,1.2-.29,2v.3c0,.8.1,1.47.29,2s.5.93.92,1.2c.42.26.97.4,1.66.4Z"/><path class="cls-1" d="M240.14,346.19c-1.17,0-2.14-.21-2.92-.63-.78-.42-1.36-1.07-1.74-1.94s-.58-1.98-.58-3.32.2-2.46.59-3.33c.39-.86.98-1.5,1.75-1.93.78-.42,1.74-.63,2.9-.63.76,0,1.43.09,2.01.28.58.19,1.09.47,1.51.84.42.38.74.85.95,1.4.21.56.32,1.21.32,1.95h-2.65c0-.53-.08-.96-.24-1.31-.16-.34-.4-.6-.72-.78-.32-.18-.73-.27-1.23-.27-.58,0-1.06.14-1.43.41-.37.27-.65.67-.82,1.21-.18.53-.27,1.21-.27,2.02v.28c0,.8.09,1.47.27,2.01.18.54.46.95.85,1.21.39.26.89.4,1.52.4.48,0,.89-.09,1.21-.27s.57-.45.74-.8.26-.78.26-1.28h2.53c0,.7-.11,1.33-.32,1.88-.21.56-.53,1.03-.94,1.41s-.92.68-1.51.88c-.59.2-1.27.3-2.02.3Z"/><path class="cls-1" d="M246.83,332.94v-2.48h2.61v2.48h-2.61ZM246.83,345.93v-11.26h2.61v11.26h-2.61Z"/><path class="cls-1" d="M254.78,346.19c-.31,0-.67-.04-1.08-.12-.41-.08-.8-.22-1.18-.44-.38-.21-.69-.53-.93-.95-.24-.42-.36-.97-.36-1.66,0-.77.17-1.41.51-1.92.34-.51.82-.91,1.44-1.2.62-.29,1.36-.5,2.23-.62.86-.12,1.81-.18,2.84-.18v-.92c0-.33-.05-.62-.15-.88-.1-.26-.28-.46-.55-.61-.26-.15-.66-.23-1.19-.23s-.94.06-1.24.19c-.3.13-.51.29-.62.47-.11.19-.17.38-.17.58v.3h-2.53c-.01-.07-.02-.14-.02-.21v-.26c0-.64.19-1.2.58-1.67s.92-.83,1.6-1.08c.68-.25,1.48-.37,2.38-.37,1.03,0,1.87.14,2.54.43.66.29,1.16.69,1.49,1.22.33.53.49,1.17.49,1.93v5.31c0,.27.08.46.24.58s.33.17.51.17h.68v1.8c-.14.06-.35.12-.62.2-.27.08-.61.12-1.01.12-.37,0-.7-.06-.99-.18-.29-.12-.54-.3-.74-.52-.2-.23-.34-.5-.43-.81h-.13c-.24.3-.53.57-.87.8-.34.24-.73.42-1.18.55-.45.13-.97.19-1.55.19ZM255.58,344.05c.43,0,.81-.06,1.14-.19.34-.13.61-.31.83-.54.22-.23.39-.51.51-.83.12-.33.18-.68.18-1.07v-.51c-.78,0-1.51.05-2.17.15-.66.1-1.19.29-1.58.56-.39.27-.59.66-.59,1.16,0,.26.06.48.18.67.12.19.31.34.56.45.25.11.56.16.93.16Z"/><path class="cls-1" d="M266.45,346.19c-.7,0-1.25-.14-1.65-.42-.4-.28-.68-.63-.85-1.07-.16-.43-.25-.88-.25-1.34v-6.55h-1.35v-2.14h1.41l.47-3.15h2.08v3.15h1.95v2.14h-1.95v6.29c0,.3.08.53.24.7.16.16.39.25.71.25h1.01v1.8c-.14.06-.32.11-.52.16s-.42.09-.65.13c-.23.04-.44.05-.64.05Z"/><path class="cls-1" d="M269.93,332.94v-2.48h2.61v2.48h-2.61ZM269.93,345.93v-11.26h2.61v11.26h-2.61Z"/><path class="cls-1" d="M280.01,346.19c-1.23,0-2.25-.21-3.08-.63s-1.45-1.07-1.86-1.94-.62-1.98-.62-3.32.21-2.46.62-3.33c.41-.86,1.03-1.5,1.86-1.93s1.85-.63,3.08-.63,2.27.21,3.09.63c.82.42,1.44,1.06,1.85,1.93.41.86.62,1.97.62,3.33s-.21,2.45-.62,3.32-1.03,1.52-1.85,1.94c-.82.42-1.85.63-3.09.63ZM280.01,344.05c.68,0,1.24-.13,1.66-.4.42-.26.73-.66.92-1.2s.29-1.2.29-2v-.3c0-.8-.1-1.47-.29-2-.19-.54-.5-.93-.92-1.2-.42-.26-.97-.4-1.66-.4s-1.24.13-1.66.4c-.42.26-.73.66-.92,1.2-.19.53-.29,1.2-.29,2v.3c0,.8.1,1.47.29,2s.5.93.92,1.2c.42.26.97.4,1.66.4Z"/><path class="cls-1" d="M287.46,345.93v-11.26h2.18l.21,1.5h.15c.26-.34.56-.65.91-.91.35-.26.75-.47,1.2-.62.45-.15.95-.22,1.49-.22.71,0,1.34.13,1.89.38.55.26.98.67,1.29,1.24.31.57.47,1.33.47,2.29v7.6h-2.63v-7.13c0-.4-.05-.73-.14-1-.09-.26-.23-.48-.41-.64-.18-.16-.4-.28-.65-.35s-.54-.11-.86-.11c-.47,0-.9.12-1.27.34-.38.23-.68.54-.9.94-.22.4-.33.86-.33,1.39v6.55h-2.61Z"/><path class="cls-4" d="M131.32,159.27c-6.5.63-12.99,1.58-19.32,3.01-6.22,1.54-12.4,3.33-18.16,6.07-13.76,6.96-21.36,19.61-16.46,34.92-8.78-16.23.85-33.38,14.85-40.7,6.2-3.24,12.2-4.53,18.5-5.95,5.85-1.24,11.75-2.18,17.65-2.83.96,1.83,1.93,3.66,2.94,5.48Z"/><path class="cls-4" d="M121.35,139.96c-9.94,1.4-19.76,3.49-29.24,6.74-17.3,5.26-31.16,19.72-28.41,38.83-4.69-14.9,3.42-30.82,16.22-39.02,3.08-2.16,6.77-3.63,10.28-5.02,9.23-3.55,18.95-5.84,28.75-7.09.74,1.88,1.54,3.75,2.4,5.56Z"/><path class="cls-4" d="M126.15,149.49c-12.56,1.62-25.11,4.18-36.67,9.38-15.08,7.93-24.12,20.96-19.64,38.53-7.82-17.77,1.62-35.2,16.97-43.36,5.61-3.02,11.71-4.83,17.8-6.41,6.19-1.56,12.47-2.76,18.77-3.58.91,1.81,1.83,3.63,2.77,5.45Z"/><path class="cls-4" d="M212.77,187.23c-.47.89-1.01,1.72-1.63,2.48-1.32,1.69-2.96,3.08-4.78,4.15-1.23.73-2.54,1.32-3.92,1.75-.6-.17-1.21-.38-1.81-.6-.25-.1-.5-.2-.74-.3-.27-.11-.53-.22-.8-.34-.28-.13-.57-.26-.85-.4-.28-.13-.56-.27-.83-.42-.28-.14-.55-.29-.83-.45-.23-.13-.47-.27-.73-.44-1.26-.79-2.87-1.97-4.71-3.45-.07-.06-.16-.13-.22-.17,7.24,5,18.62-1.16,18.58-11.2-.08-6.98-6.46-10.56-12.47-12.46-9.98-3.47-20.5-5.23-31.06-6.33,1-1.8,2-3.61,2.98-5.43,12.62,1.46,25.4,3.69,36.95,9.28,8.95,5.05,11.97,15.34,6.87,24.33Z"/><path class="cls-4" d="M229.86,186.65s0,0-.01,0c-1.55,1.93-3.33,3.64-5.27,5.06-.39.29-.79.57-1.19.83-.36.24-.73.47-1.1.69-.09.04-.17.09-.26.15-.37.21-.74.41-1.12.6-.21.11-.43.21-.64.32-.22.1-.43.2-.65.29-.22.1-.44.19-.66.28-.69.29-1.4.54-2.12.76-.17.05-.33.1-.5.14-.25.08-.5.14-.75.2-.23.06-.46.11-.69.16-.46.11-.92.19-1.39.26-.42.07-.85.12-1.28.17-.28.03-.56.05-.84.07h-.06l-.72.03c3.15-1.51,5.9-3.82,8.07-6.63,3.79-2.53,6.79-6.22,8.2-10.58,2.92-8.8-1.06-18.41-7.61-24.5-7.87-7.75-18.56-11.34-29.25-13.49-4.54-.91-9.13-1.6-13.76-2.14.27-.59.53-1.19.79-1.79.54-1.25,1.05-2.48,1.54-3.7h.08c16.62,2.09,34.33,5.83,46.15,18.54,9.79,10.32,11.18,24.16,5.04,34.27Z"/><path class="cls-4" d="M218.69,190.04c-2.17,2.81-4.92,5.12-8.07,6.63-.21.01-.43.01-.64.01-1.16,0-2.3-.06-3.44-.21-.47-.06-.94-.13-1.4-.21-.28-.06-.57-.11-.85-.18-.62-.13-1.24-.29-1.85-.47-.6-.17-1.21-.38-1.81-.6-.25-.1-.5-.2-.74-.3-.27-.11-.53-.22-.8-.34-.28-.13-.57-.26-.85-.4-.28-.13-.56-.27-.83-.42-.28-.14-.55-.29-.83-.45-.23-.13-.47-.27-.73-.44-.83-.52-1.82-1.21-2.92-2.05.27.14.55.27.82.38.09.05.18.09.27.12,5.74,2.47,12.29,2.45,17.12-1.4.84-.66,1.62-1.43,2.34-2.33,6.86-7.87,6.22-20.43-2.55-26.58-4.66-3.34-10.21-5.18-15.68-7.02-7.72-2.44-15.78-3.9-23.87-4.58.97-1.82,1.91-3.65,2.82-5.5,12.27,1.23,24.36,4.19,35.52,9.63,6.71,3.23,12.25,9.31,13.71,16.77,1.51,7.13-.5,14.48-4.74,19.94Z"/><path class="cls-1" d="M221.33,207.31c-8.01,8.39-20.72,11.03-31.94,8.87-5.75-1.09-10.92-4.21-15.81-7.31-4.81-3.12-9.37-6.65-13.62-10.52-4.22-3.94-8.07-8.21-11.63-12.71-1.23-1.55-2.42-3.13-3.58-4.74-2.99-4.13-5.78-8.43-8.41-12.82-1.07-1.8-2.12-3.61-3.14-5.43-3.88-6.84-7.44-13.84-10.91-20.76-2.56-5.07-4.62-10.58-6.4-15.94-3.51-11.05-6.38-22.28-5.64-34.1.51-5.96,2.28-12.04,5.9-17.13,4.92-7.3,13.6-11.67,22.29-11.74h0c15.09,3.42,22.67,14.02,22.67,29.97.01.14,0,.27,0,.41-.03-.53-.08-1.06-.13-1.59-.02-.18-.05-.36-.07-.54-.13-1.1-.31-2.2-.55-3.27-.83-3.31-2.05-6.18-3.56-8.61-2.33-3.75-5.36-6.48-8.73-8.22-12.89-6.73-30.6,1.11-32.08,21.2-.69,10.62,2.1,21.63,5.35,31.82,1.7,5.1,3.66,10.41,6.11,15.21,11.93,24.7,26.6,49.02,48.79,65.64,4.36,3.16,8.75,6.31,13.98,7.84,10.29,2.97,22.55,1.44,31.1-5.53Z"/><path class="cls-1" d="M227.77,195.68c-3.01,4.02-6.81,7.57-11.36,10.11-14.91,8.55-31.73,1.69-43.44-9.02-22.6-21-38.85-47.8-48.28-76.96-3.38-12.01-7.47-27.61-.03-38.88,5-7.75,14.66-11.23,23.42-9.8,2.76.44,5.42,1.37,7.82,2.79,3.48,4.97,5.22,11.37,5.22,19-.03-.38-.07-.77-.13-1.15-.02-.18-.05-.36-.07-.54-1.04-6.06-4.96-11.51-10.61-13.67-1.25-.48-2.59-.79-3.99-.92-8.9-1.08-17.54,4.56-19.43,13.43-3.06,16.49,7.09,40.57,14.62,55.32,10.26,19.48,23.42,38.06,41.06,51.43,9.14,7.74,21.35,11.89,32.9,7,4.53-1.79,8.66-4.68,12.3-8.14Z"/><path class="cls-1" d="M229.86,186.65c-4.85,9.55-13.34,13.91-23.78,13.91-4.8,0-10.35-1.21-15.23-4.04-11.19-6.48-26.13-23.25-34.94-35.51-10.57-14.71-18.57-31.2-22.93-48.79-4.42-16.23-3.26-28.48,7.75-33.14,10.15-4.28,17.64,1.04,18.61,1.78,1.19,3.58,1.78,7.63,1.78,12.09.01.14,0,.27,0,.41,0,.32,0,.64-.02.97,0,.16,0,.33-.02.49,0-6.3-6.75-11.57-12.29-11.57-9.42,0-13.83,7.25-11.91,17.93,2.22,12.35,6.16,24.87,11.88,36.63.25.52.5,1.03.76,1.54.24.49.49.99.75,1.47.53,1.03,1.09,2.06,1.66,3.08.75,1.38,1.54,2.75,2.35,4.1.49.81.98,1.61,1.49,2.41.64,1.01,1.28,2.01,1.95,3,.87,1.33,1.77,2.64,2.69,3.93.02.03.04.06.06.09,1.12,1.57,2.38,3.2,3.73,4.86,10.4,12.82,26.43,27.45,32.37,30.81,4.44,2.51,8.83,3.59,13.4,3.58,7.62,0,14.92-3.83,19.89-10.03Z"/><path class="cls-3" d="M166.64,95.37c.02,13.72-4.28,27-9.88,39.38-1.5,3.16-3.03,6.16-4.83,9.15-.57-1.02-1.13-2.05-1.66-3.08-.26-.48-.51-.98-.75-1.47-.26-.51-.51-1.02-.76-1.54.41-.73.8-1.47,1.18-2.21.35-.67.68-1.34,1.02-2.01.04-.09.08-.18.13-.27.18-.39.37-.77.55-1.16,5.04-10.69,8.3-22.26,9.24-33.97.09-1.2.16-2.31.2-3.37.01-.16.02-.33.02-.49.01-.33.02-.65.02-.97,0-.14.01-.27,0-.41,0-.56,0-1.11-.03-1.65-.01-.47-.04-.93-.07-1.39,0-.27-.03-.54-.06-.81-.03-.42-.07-.84-.12-1.25-.04-.35-.08-.69-.13-1.03-.03-.19-.05-.38-.08-.57-.04-.24-.08-.48-.13-.72-.04-.28-.09-.56-.15-.84-.03-.14-.06-.27-.09-.4-.06-.32-.13-.64-.21-.95-.02-.1-.05-.2-.08-.29-.08-.33-.16-.66-.26-.99-.11-.4-.24-.81-.37-1.2-3.05-9.23-10.02-15.42-20.9-17.88,18.77.01,28.18,14.91,28.2,32.39Z"/><path class="cls-4" d="M151.64,132.16c-.18.39-.37.77-.55,1.16-.05.09-.09.18-.13.27-.34.67-.67,1.34-1.02,2.01-.38.74-.77,1.48-1.18,2.21-.9-1.86-1.76-3.74-2.58-5.63h0c1.74-.02,3.73-.02,5.46-.02Z"/><path class="cls-3" d="M136.34,168.08c-5.76,7.85-12.19,15.34-19.85,21.44-6.48,5.52-14.87,9.21-23.29,5.49-4.07-1.8-7.32-5.23-9.04-9.25,0-.03-.02-.05-.03-.08-.87-1.94-1.33-3.99-1.42-6.07-.05-1.01,0-2.02.12-3.03h0c2.92-3.25,6.65-6.03,11-8.23.21-.1.43-.2.65-.3-5.41,2.64-7.53,9.96-5.04,15.44,2.38,5.77,9.01,8.62,14.93,6.63,3.17-.94,5.91-3.07,8.54-5.11,2.78-2.21,5.41-4.63,7.89-7.22,4.5-4.67,8.55-9.8,12.4-15.14,1.02,1.82,2.07,3.63,3.14,5.43Z"/><path class="cls-3" d="M142.19,177.24c-4.78,6.02-9.96,11.73-15.65,17.01-7.03,6.4-15.46,13.33-25.63,13.05-9.41-.09-17.53-6.9-20.95-15.46-1.07-2.68-1.69-5.51-1.73-8.37h0c2.88-6.2,8.25-11.32,15.26-14.94-.69.43-1.37.89-2.01,1.39-.18.13-.35.27-.53.41-4.73,3.81-7.89,9.25-6.82,15.35.07.47.18.95.31,1.43,2.75,9.97,12.01,17.03,22.4,13.58,11.33-3.98,23.95-18.33,32-28.54,1.09,1.72,2.2,3.42,3.35,5.09Z"/><path class="cls-3" d="M148.33,185.64c-9.34,11.69-22.75,26.07-36.29,30.25-10.73,3.04-23.11.46-31.04-7.64-1.44-1.52-2.65-3.2-3.63-4.98-4.9-15.31,2.71-27.95,16.46-34.92.02-.01.05-.02.07-.03-.83.5-1.63,1.04-2.42,1.6-.18.13-.35.27-.53.41-.82.6-1.62,1.24-2.39,1.91-2.43,2.08-4.41,4.61-5.85,7.37-2,3.81-2.99,8.06-2.75,12.23.25,4.47,1.9,8.83,5.2,12.43,6.42,6.53,16.61,8.56,25.3,6.09,12.5-3.98,25.65-18.49,34.29-29.46,1.16,1.61,2.35,3.19,3.58,4.74Z"/><path class="cls-3" d="M186.02,104.92c-1.21,11.24-4.09,21.33-8.97,32.62-3.73,8.63-8.45,16.71-12.85,24.74h0c-1.35-1.65-2.61-3.28-3.73-4.85-.02-.03-.04-.06-.06-.09,9.22-15.74,16.94-31.65,19.81-49.58,1.48-9.3,1.96-19.02-1.04-28.19-2.83-8.98-8.52-16.29-17.81-19.54,9.81,2.12,17.91,9.07,21.78,18.51,3.62,8.32,3.88,17.6,2.87,26.38Z"/><path class="cls-3" d="M176.98,94.15c.12,16.78-5.78,32.79-12.78,47.7-1.95,4.01-4,7.84-6.48,11.56-.67-.99-1.31-1.99-1.95-3-.51-.8-1-1.6-1.49-2.41,3.98-6.7,7.14-13.97,10.05-21.19,9.47-23.67,14.8-58.42-16.42-67.13,19.11,2.05,28.58,16.33,29.07,34.47Z"/></svg>